{"title":"Jazmine Sullivan ft Missy Elliott - Holding You Down (Goin In Ci","uid":5799896,"size":80025415,"categoryP":"video","categoryS":"music_videos","magnet":"?xt=urn:btih:94192d46886d08468a890c0274d46984e1ba8c4e&amp;dn=Jazmine+Sullivan+ft+Missy+Elliott+-+Holding+You+Down+%28Goin+In+Ci&amp;tr=udp%3A%2F%2Ftracker.openbittorrent.com%3A80&amp;tr=udp%3A%2F%2Fopen.demonii.com%3A1337&amp;tr=udp%3A%2F%2Ftracker.coppersurfer.tk%3A6969&amp;tr=udp%3A%2F%2Fexodus.desync.com%3A6969","seeders":0,"leechers":0,"uploader":"KingPinMan","files":4,"time":1283220971,"description":"[img]http://a.imageshack.us/img683/8066/jazmanhold.png[/img]\n\n[img]http://a.imageshack.us/img811/9747/jazmanhold2.png[/img]\n\n[code]General\nComplete name                    : Jazmine Sullivan ft Missy Elliott - Holding You Down (Goin In Circles) [KingPinVideos].mpg\nFormat                           : MPEG-PS\nFile size                        : 76.3 MiB\nDuration                         : 3mn 44s\nOverall bit rate                 : 2 856 Kbps\nWriting library                  : encoded by TMPGEnc 4.0 XPress Version. 4.7.4.299\n\nVideo\nID                               : 224 (0xE0)\nFormat                           : MPEG Video\nFormat version                   : Version 1\nFormat settings, BVOP            : Yes\nFormat settings, Matrix          : Default\nDuration                         : 3mn 44s\nBit rate mode                    : Constant\nBit rate                         : 2 615 Kbps\nNominal bit rate                 : 2 700 Kbps\nWidth                            : 384 pixels\nHeight                           : 208 pixels\nDisplay aspect ratio             : 16:9\nFrame rate                       : 29.970 fps\nResolution                       : 8 bits\nScan type                        : Progressive\nBits/(Pixel*Frame)               : 1.092\nStream size                      : 69.9 MiB (92%)\nWriting library                  : TMPGEnc XPress 4.7.4.299\n\nAudio\nID                               : 192 (0xC0)\nFormat                           : MPEG Audio\nFormat version                   : Version 1\nFormat profile                   : Layer 2\nDuration                         : 3mn 44s\nBit rate mode                    : Constant\nBit rate                         : 128 Kbps\nChannel(s)                       : 2 channels\nSampling rate                    : 48.0 KHz\nStream size                      : 3.42 MiB (4%)[/code]","torrent":{"xt":"urn:btih:94192d46886d08468a890c0274d46984e1ba8c4e","amp;dn":"Jazmine+Sullivan+ft+Missy+Elliott+-+Holding+You+Down+%28Goin+In+Ci","amp;tr":["udp%3A%2F%2Ftracker.openbittorrent.com%3A80","udp%3A%2F%2Fopen.demonii.com%3A1337","udp%3A%2F%2Ftracker.coppersurfer.tk%3A6969","udp%3A%2F%2Fexodus.desync.com%3A6969"],"infoHash":"94192d46886d08468a890c0274d46984e1ba8c4e","infoHashBuffer":{"type":"Buffer","data":[148,25,45,70,136,109,8,70,138,137,12,2,116,212,105,132,225,186,140,78]},"announce":[],"urlList":[]}}